<?xml version="1.0" encoding="UTF-8" standalone="no"?>
<svg
   xmlns:dc="http://purl.org/dc/elements/1.1/"
   xmlns:cc="http://creativecommons.org/ns#"
   xmlns:rdf="http://www.w3.org/1999/02/22-rdf-syntax-ns#"
   xmlns:svg="http://www.w3.org/2000/svg"
   xmlns="http://www.w3.org/2000/svg"
   viewBox="0 0 873.73334 266.66666"
   height="266.66666"
   width="873.73334"
   xml:space="preserve"
   id="svg2"
   version="1.1"><metadata
     id="metadata8"><rdf:RDF><cc:Work
         rdf:about=""><dc:format>image/svg+xml</dc:format><dc:type
           rdf:resource="http://purl.org/dc/dcmitype/StillImage" /></cc:Work></rdf:RDF></metadata><defs
     id="defs6" /><g
     transform="matrix(1.3333333,0,0,-1.3333333,0,266.66667)"
     id="g10"><g
       transform="scale(0.1)"
       id="g12"><path
         id="path14"
         style="fill:#3db83d;fill-opacity:1;fill-rule:nonzero;stroke:none"
         d="m 2164.28,507.391 h 253.65 V 2000 H 2164.28 V 507.391" /><path
         id="path16"
         style="fill:#3db83d;fill-opacity:1;fill-rule:nonzero;stroke:none"
         d="m 2913.92,1112.9 c -26.84,0 -48.66,21.85 -48.66,48.68 0,26.83 21.82,48.67 48.66,48.67 h 302.33 v 253.65 h -302.93 c -166.44,-0.31 -301.73,-135.81 -301.73,-302.32 0,-166.709 135.62,-302.33 302.33,-302.33 26.83,0 48.67,-21.84 48.67,-48.672 0,-26.84 -21.84,-48.68 -48.67,-48.68 H 2611.59 V 508.25 h 302.33 c 166.7,0 302.33,135.621 302.33,302.328 0,166.703 -135.63,302.322 -302.33,302.322" /><path
         id="path18"
         style="fill:#3db83d;fill-opacity:1;fill-rule:nonzero;stroke:none"
         d="m 1719.22,942.031 c 0,-99.793 -81.19,-180.992 -180.99,-180.992 h -3.96 c -99.8,0 -180.99,81.199 -180.99,180.992 V 1463.9 H 1099.62 V 942.031 c 0,-240.043 194.6,-434.64 434.65,-434.64 h 3.96 c 240.05,0 434.64,194.597 434.64,434.64 V 1463.9 H 1719.22 V 942.031" /><path
         id="path20"
         style="fill:#3db83d;fill-opacity:1;fill-rule:nonzero;stroke:none"
         d="m 4007.36,834.41 c -41.17,-46.16 -101.04,-75.301 -167.61,-75.301 -123.85,0 -224.6,100.762 -224.6,224.61 0,123.841 100.75,224.601 224.6,224.601 76.45,0 144.04,-38.41 184.63,-96.91 25.18,-36.29 39.98,-80.28 39.98,-127.691 0,-57.278 -21.58,-109.59 -57,-149.309 z m -167.61,627.56 c -264.13,0 -478.25,-214.12 -478.25,-478.251 0,-249.449 190.98,-454.258 434.71,-476.258 14.34,-1.301 28.86,-2 43.54,-2 81.19,0 157.64,20.258 224.61,55.949 v -54.019 h 253.65 v 476.328 c 0,264.131 -214.12,478.251 -478.26,478.251" /><path
         id="path22"
         style="fill:#3db83d;fill-opacity:1;fill-rule:nonzero;stroke:none"
         d="m 478.258,759.109 c -66.613,0 -126.512,29.18 -167.68,75.391 -35.375,39.699 -56.926,91.98 -56.926,149.219 0,47.391 14.789,91.371 39.95,127.651 40.582,58.53 108.199,96.95 184.656,96.95 123.847,0 224.601,-100.76 224.601,-224.601 0,-123.848 -100.754,-224.61 -224.601,-224.61 z m 0,702.861 c -8.645,0 -17.235,-0.24 -25.762,-0.69 C 409.652,1459 368.309,1451.07 329.188,1438.25 138.055,1375.6 0,1195.8 0,983.719 V -0.0117188 L 253.652,253.648 V 561.41 c 66.973,-35.691 143.418,-55.949 224.606,-55.949 14.676,0 29.191,0.699 43.535,2 243.723,21.988 434.719,226.801 434.719,476.258 0,264.131 -214.125,478.251 -478.254,478.251" /><path
         id="path24"
         style="fill:#3db83d;fill-opacity:1;fill-rule:nonzero;stroke:none"
         d="m 5243.58,1461.97 h -253.65 c -264.14,0 -478.27,-214.12 -478.27,-478.251 V 505.461 h 253.66 v 478.258 c 0,123.841 100.76,224.601 224.61,224.601 v 0 l 253.65,253.65" /><path
         id="path26"
         style="fill:#3db83d;fill-opacity:1;fill-rule:nonzero;stroke:none"
         d="m 5481.06,1350.68 c -20.35,20.35 -53.35,20.35 -73.7,0 l -20.57,-20.57 -121.94,-121.94 0.01,-0.01 142.5,-142.5 c 20.35,-20.35 53.35,-20.35 73.7,0 l 105.66,105.65 c 20.35,20.36 20.35,53.36 0,73.71 l -105.66,105.66" /><path
         id="path28"
         style="fill:#3db83d;fill-opacity:1;fill-rule:nonzero;stroke:none"
         d="m 5798.05,1667.66 c -20.35,20.36 -53.35,20.36 -73.7,0 l -20.57,-20.56 -121.94,-121.94 0.01,-0.01 142.5,-142.5 c 20.35,-20.36 53.35,-20.36 73.7,0 l 105.67,105.65 c 20.35,20.36 20.35,53.36 0,73.71 l -105.67,105.65" /><path
         id="path30"
         style="fill:#3db83d;fill-opacity:1;fill-rule:nonzero;stroke:none"
         d="m 6115.05,1984.66 c -20.36,20.36 -53.36,20.36 -73.71,0 l -20.56,-20.57 -121.95,-121.94 h 0.01 l 142.5,-142.51 c 20.35,-20.35 53.35,-20.35 73.71,0 l 105.66,105.66 c 20.35,20.35 20.35,53.35 0,73.7 l -105.66,105.66" /><path
         id="path32"
         style="fill:#3db83d;fill-opacity:1;fill-rule:nonzero;stroke:none"
         d="m 6432.04,1667.67 c -20.36,20.35 -53.35,20.35 -73.71,0 l -20.56,-20.57 -121.95,-121.94 h 0.01 l 142.5,-142.51 c 20.36,-20.35 53.35,-20.35 73.71,0 l 105.66,105.66 c 20.35,20.35 20.35,53.35 0,73.7 l -105.66,105.66" /><path
         id="path34"
         style="fill:#3db83d;fill-opacity:1;fill-rule:nonzero;stroke:none"
         d="m 6115.04,1350.68 c -20.35,20.35 -53.35,20.35 -73.7,0 l -20.56,-20.57 -121.95,-121.94 0.01,-0.01 c 0,0 142.5,-142.5 142.5,-142.5 20.35,-20.36 53.35,-20.36 73.7,0 l 105.67,105.65 c 20.35,20.36 20.35,53.36 0,73.71 l -105.67,105.66" /><path
         id="path36"
         style="fill:#3db83d;fill-opacity:1;fill-rule:nonzero;stroke:none"
         d="M 717.461,226.75 627.234,0.949219 h -8.168 L 528.473,226.75 V 0.949219 H 507.305 V 254.602 h 31.562 L 623.152,47.3984 707.066,254.602 H 739 V 0.949219 H 717.461 V 226.75" /><path
         id="path38"
         style="fill:#3db83d;fill-opacity:1;fill-rule:nonzero;stroke:none"
         d="M 949.648,254.602 H 1106.71 V 235.301 H 970.816 v -93.59 H 1104.11 V 122.41 H 970.816 V 20.2617 H 1106.71 V 0.949219 H 949.648 V 254.602" /><path
         id="path40"
         style="fill:#3db83d;fill-opacity:1;fill-rule:nonzero;stroke:none"
         d="m 1373.98,85.2813 h 118.45 L 1433.02,235.301 Z M 1499.11,65.9688 H 1367.3 L 1342.43,0.949219 h -23.77 L 1420.03,254.602 h 26.36 L 1547.75,0.949219 h -23.76 L 1499.11,65.9688" /><path
         id="path42"
         style="fill:#3db83d;fill-opacity:1;fill-rule:nonzero;stroke:none"
         d="m 1762.68,56.2695 c 15.96,-18.5586 41.95,-36.0078 77.23,-36.0078 50.87,0 65.34,28.2071 65.34,49.3672 0,34.9101 -33.41,44.2301 -67.94,53.5121 -38.99,10.769 -80.57,19.699 -80.57,65.359 0,40.48 36.38,66.09 81.31,66.09 36.76,0 64.61,-12.981 83.91,-34.899 l -14.11,-15.582 c -17.82,21.532 -43.07,31.192 -70.91,31.192 -33.05,0 -57.93,-18.942 -57.93,-45.68 0,-29.332 30.82,-35.66 64.61,-44.941 39.73,-11.141 83.91,-23.43 83.91,-73.93 0,-31.5586 -21.16,-69.808594 -87.99,-69.808594 -40.85,0 -71.66,16.347694 -90.61,39.367194 l 13.75,15.9609" /><path
         id="path44"
         style="fill:#3db83d;fill-opacity:1;fill-rule:nonzero;stroke:none"
         d="m 2146.72,254.59 h 21.54 V 100.828 c 0,-50.1171 26.36,-80.5663 75.01,-80.5663 48.63,0 75,30.4492 75,80.5663 V 254.59 h 21.53 V 100.461 c 0,-61.2696 -32.67,-99.519594 -96.53,-99.519594 -63.5,0 -96.55,38.617194 -96.55,99.519594 V 254.59" /><path
         id="path46"
         style="fill:#3db83d;fill-opacity:1;fill-rule:nonzero;stroke:none"
         d="m 2653.49,235.301 h -69.43 V 128.719 h 69.43 c 32.67,0 54.95,22.281 54.95,53.472 0,31.188 -22.28,53.11 -54.95,53.11 z m -14.85,-125.879 h -54.58 V 0.941406 h -21.17 V 254.59 h 92.46 c 42.7,0 75.37,-27.102 75.37,-72.399 0,-44.921 -31.93,-69.8 -68.69,-71.293 L 2733.69,0.941406 h -25.62 L 2638.64,109.422" /><path
         id="path48"
         style="fill:#3db83d;fill-opacity:1;fill-rule:nonzero;stroke:none"
         d="m 2974.79,254.602 h 157.06 v -19.301 h -135.9 v -93.59 h 133.3 V 122.41 h -133.3 V 20.2617 h 135.9 V 0.949219 H 2974.79 V 254.602" /><path
         id="path50"
         style="fill:#3db83d;fill-opacity:1;fill-rule:nonzero;stroke:none"
         d="M 3552.66,226.75 3462.44,0.949219 h -8.18 L 3363.67,226.75 V 0.949219 H 3342.5 V 254.602 h 31.56 l 84.28,-207.1918 83.92,207.1918 h 31.93 V 0.949219 h -21.53 V 226.75" /><path
         id="path52"
         style="fill:#3db83d;fill-opacity:1;fill-rule:nonzero;stroke:none"
         d="m 3784.85,254.602 h 157.05 v -19.301 h -135.89 v -93.59 H 3939.3 V 122.41 H 3806.01 V 20.2617 H 3941.9 V 0.949219 H 3784.85 V 254.602" /><path
         id="path54"
         style="fill:#3db83d;fill-opacity:1;fill-rule:nonzero;stroke:none"
         d="M 4190.62,220.809 V 0.949219 h -21.16 V 254.602 h 21.53 L 4346.19,37.7188 V 254.602 h 21.17 V 0.949219 h -20.8 L 4190.62,220.809" /><path
         id="path56"
         style="fill:#3db83d;fill-opacity:1;fill-rule:nonzero;stroke:none"
         d="m 4662.66,235.301 h -80.94 v 19.301 h 183.42 v -19.301 h -80.95 V 0.949219 h -21.53 V 235.301" /></g></g></svg>